<?xml version="1.0" encoding="utf-8" ?>
<svg baseProfile="full" height="200mm" version="1.1" viewBox="0,0,200,200" width="200mm" xmlns="http://www.w3.org/2000/svg" xmlns:ev="http://www.w3.org/2001/xml-events" xmlns:xlink="http://www.w3.org/1999/xlink"><defs /><rect fill="#1a1a1a" height="200" width="200" x="0" y="0" /><text alignment-baseline="middle" fill="#e1ed5e" style="dominant-baseline: central; font-size:9.0px; font-family:Arial;" text-anchor="middle" x="100.0" y="100.0">2025</text><line stroke="#e1ed5e" stroke-width="0.3" x1="100.0" x2="100.0" y1="15.0" y2="10.0" /><path d="M 100.0 14.0 a86.0,86.0 0 0,1 42.46469731375804,11.215312516191453" fill="none" id="id25" stroke="none" /><text fill="#e1ed5e" style="font-size:6.75px; font-family:Arial;" text-anchor="middle"><textPath startOffset="22.20632615414155" xlink:href="#id25">January</textPath></text><line stroke="#e1ed5e" stroke-width="0.3" x1="143.23703022742887" x2="145.7803849466894" y1="26.81831364943548" y2="22.513508569990506" /><path d="M 143.74570117128098 25.957352633546492 a86.0,86.0 0 0,1 28.547481713284135,27.462654790039103" fill="none" id="id26" stroke="none" /><text fill="#e1ed5e" style="font-size:6.75px; font-family:Arial;" text-anchor="middle"><textPath startOffset="19.985693538727396" xlink:href="#id26">February</textPath></text><line stroke="#e1ed5e" stroke-width="0.3" x1="172.23445277983987" x2="176.4835382374775" y1="55.19839476539836" y2="52.563006222186495" /><path d="M 173.08426987136738 54.67131705675599 a86.0,86.0 0 0,1 12.851231095245387,41.99856678651699" fill="none" id="id27" stroke="none" /><text fill="#e1ed5e" style="font-size:6.75px; font-family:Arial;" text-anchor="middle"><textPath startOffset="22.20632615414155" xlink:href="#id27">March</textPath></text><line stroke="#e1ed5e" stroke-width="0.3" x1="184.98032266829074" x2="189.97916517819016" y1="98.17113171792111" y2="98.06355123074" /><path d="M 185.9800911702706 98.14961562048488 a86.0,86.0 0 0,1 -9.607161424134198,41.387399972396054" fill="none" id="id28" stroke="none" /><text fill="#e1ed5e" style="font-size:6.75px; font-family:Arial;" text-anchor="middle"><textPath startOffset="21.466115282336823" xlink:href="#id28">April</textPath></text><path d="M 120.49622156327973 104.57218783832717 l 5.235458593989302 1.1678981922399232 a26.36414139232121,26.36414139232121 0 0,0 -0.10261857129215346,0.44207811934906394 l -5.214579456766595 -1.257844968937552" fill="#ff1202" stroke="none" /><path d="M 119.79798401119884 107.00284435728193 l 7.457697782495511 2.6378997379188305 a28.91048489299807,28.91048489299807 0 0,0 -0.16998778508857929,0.4677333777150981 l -7.411185736401705 -2.7658809126400596" fill="#ff3805" stroke="none" /><line stroke="#e1ed5e" stroke-width="0.3" x1="174.80103733775053" x2="179.2010983576182" y1="140.37084112569926" y2="142.7455964860345" /><path d="M 175.68104954172406 140.8457921977663 a86.0,86.0 0 0,1 -30.038265399797805,32.042727171017184" fill="none" id="id29" stroke="none" /><text fill="#e1ed5e" style="font-size:6.75px; font-family:Arial;" text-anchor="middle"><textPath startOffset="22.206326154141568" xlink:href="#id29">May</textPath></text><line stroke="#e1ed5e" stroke-width="0.3" x1="143.8653032363475" x2="146.44561519142675" y1="172.8068346515853" y2="177.08958963109032" /><path d="M 144.38136562736335 173.6633856474863 a86.0,86.0 0 0,1 -40.68145358897372,12.25698825130547" fill="none" id="id30" stroke="none" /><text fill="#e1ed5e" style="font-size:6.75px; font-family:Arial;" text-anchor="middle"><textPath startOffset="21.466115282336833" xlink:href="#id30">June</textPath></text><path d="M 110.21172684928248 118.3499491758327 l 6.125227240646913 11.006719060860332 a33.59628013479651,33.59628013479651 0 0,0 -0.507747281945471,0.2768643020678121 l -5.934857146832793 -11.110524014687915" fill="#ff7c0b" stroke="none" /><path d="M 106.2309692047433 120.05430185196036 l 3.7442228181598587 12.050737554474695 a33.6190126443734,33.6190126443734 0 0,0 -0.554113410039402,0.1669498249832583 l -3.536234433680211 -12.11340274856368" fill="#ff7d0b" stroke="none" /><path d="M 105.88484417918355 120.15858648285463 l 3.539391357060415 12.124216817898718 a33.63027808980674,33.63027808980674 0 0,0 -0.557091693115159,0.15743967711286025 l -3.3301684958406503 -12.183345288350099" fill="#ff7d0b" stroke="none" /><path d="M 105.53697534728816 120.25689768951611 l 3.324932246028271 12.16418858815311 a33.61041864685043,33.61041864685043 0 0,0 -0.5593886922943277,0.14773963783963923 l -3.115053110922446 -12.219619575296333" fill="#ff7d0b" stroke="none" /><path d="M 105.18746579009965 120.34920634021253 l 3.7386962476334125 14.666024695848469 a36.13506293384026,36.13506293384026 0 0,0 -0.6040521499296175,0.14846132193690834 l -3.4856908129605837 -14.728207276099406" fill="#ffa00e" stroke="none" /><path d="M 104.48393922423573 120.51570834832081 l 2.692593514781032 12.319628007278187 a33.61044384918921,33.61044384918921 0 0,0 -0.5662696199519802,0.11866730459732334 l -2.4801324333996737 -12.36415129260205" fill="#ff7d0b" stroke="none" /><path d="M 104.13013068566511 120.58985236759428 l 3.967989837006978 19.78153505496917 a41.175581093925516,41.175581093925516 0 0,0 -0.6961268941510765,0.13341437606002568 l -3.626895328284197 -19.84690662937766" fill="#ffe415" stroke="none" /><path d="M 103.7750983002368 120.6578951692458 l 0.753994852262583 4.125971134371347 a25.19429923096863,25.19429923096863 0 0,0 -0.42728455162621043,0.07428889626422375 l -0.6828613291643226 -4.138338609156577" fill="#ff0000" stroke="none" /><path d="M 103.41894727170886 120.7198165907248 l 2.2683141356041765 13.74664454429445 a34.932533339093865,34.932533339093865 0 0,0 -0.5941261000963878,0.09279027801468168 l -2.0313521718992718 -13.783653129656237" fill="#ff8f0d" stroke="none" /><path d="M 101.62511606390274 120.93702456842531 l 1.9588392653276543 25.23651493867455 a46.31242259281662,46.31242259281662 0 0,0 -0.7953325821672799,0.05485079139736888 l -1.524143922381444 -25.266494074588206" fill="#d9ff1c" stroke="none" /><path d="M 101.26447882468166 120.96189622390904 l 0.25408064097240246 4.212021525871446 a25.219677986117112,25.219677986117112 0 0,0 -0.4335526030361041,0.022409717362666108 l -0.1815399695228188 -4.215771049996314" fill="#ff0000" stroke="none" /><path d="M 100.90346689309514 120.98055641714683 l 0.21733033727795953 5.046904803336943 a26.051581986808376,26.051581986808376 0 0,0 -0.44818601802443303,0.015436432665761942 l -0.13042396757887423 -5.049898034428799" fill="#ff0d01" stroke="none" /><line stroke="#e1ed5e" stroke-width="0.3" x1="102.19456741930631" x2="102.32365962044197" y1="184.97166512339345" y2="189.96999836594603" /><path d="M 102.22038585953345 185.97133177190398 a86.0,86.0 0 0,1 -42.740103519485714,-10.115201625700543" fill="none" id="id31" stroke="none" /><text fill="#e1ed5e" style="font-size:6.75px; font-family:Arial;" text-anchor="middle"><textPath startOffset="22.20632615414155" xlink:href="#id31">July</textPath></text><path d="M 98.01472825383883 120.90594882070398 l -1.1955431224614155 12.589693768348134 a33.64633197960771,33.64633197960771 0 0,0 -0.5761011535073205,-0.05971524009652921 l 1.4120768725743293 -12.567249159795844" fill="#ff7d0b" stroke="none" /><path d="M 96.58105272829116 120.7198165907248 l -4.104094037318077 24.87200561060873 a46.20833693366744,46.20833693366744 0 0,0 -0.7836736535948439,-0.13625170986252277 l 4.5316166623849705 -24.797675322225203" fill="#daff1c" stroke="none" /><path d="M 96.22490169976321 120.6578951692458 l -4.533111740055074 24.805856607935546 a46.21665370546387,46.21665370546387 0 0,0 -0.7813528005507022,-0.14974812386087683 l 4.959432155177471 -24.7241512857262" fill="#daff1c" stroke="none" /><path d="M 95.51606077576429 120.51570834832081 l -3.3783823944000395 15.457370054882224 a36.82225510527377,36.82225510527377 0 0,0 -0.6180525227868952,-0.1406667419800363 l 3.6439550665797973 -15.3969265793245" fill="#ffa90f" stroke="none" /><path d="M 95.16358092515715 120.4354850818985 l -4.64470497732413 19.625429021990012 a41.16756675019442,41.16756675019442 0 0,0 -0.6881780515604939,-0.1691374217847597 l 4.981836313627834 -19.542570341891224" fill="#ffe415" stroke="none" /><path d="M 94.81253420990036 120.34920634021253 l -4.3615176135028815 17.10920620296499 a38.656380512111525,38.656380512111525 0 0,0 -0.6433702112046988,-0.16991992028001604 l 4.65537826751907 -17.031594933381395" fill="#ffc212" stroke="none" /><path d="M 94.11515582081647 120.15858648285463 l -7.461999312629168 25.561145528836526 a47.62806028399436,47.62806028399436 0 0,0 -0.7850125515790028,-0.23651784223460012 l 7.900886838648417 -25.4289123174962" fill="#c9ff1d" stroke="none" /><path d="M 93.76903079525671 120.05430185196036 l -8.223885393509926 26.468479406354337 a48.71665010512976,48.71665010512976 0 0,0 -0.7986715604699701,-0.2557094124458838 l 8.678278299070836 -26.322997147248746" fill="#bbff1f" stroke="none" /><path d="M 92.06813273071674 119.44442032107085 l -5.915364577765694 14.501104380285916 a36.66121216048849,36.66121216048849 0 0,0 -0.5822647897591244,-0.24338672934238756 l 6.164100827022281 -14.397132607923556" fill="#ffa70f" stroke="none" /><path d="M 91.7346041902142 119.30500536409082 l -8.026368136623635 18.74672229831212 a41.3926992424897,41.3926992424897 0 0,0 -0.6525841399665919,-0.286073709281292 l 8.34787295124797 -18.605784035736374" fill="#ffe715" stroke="none" /><path d="M 91.40352486487194 119.15986991738527 l -12.38136265630917 27.59564753761389 a51.24595682479334,51.24595682479334 0 0,0 -0.8017112811650308,-0.36802632772764854 l 12.85454193324162 -27.37843413955217" fill="#9eff22" stroke="none" /><path d="M 91.07499286063937 119.00905698771935 l -6.429354256616447 13.693654195442278 a36.1278802672888,36.1278802672888 0 0,0 -0.5606485005292119,-0.2691453508072943 l 6.664115425145901 -13.580954568135422" fill="#ffa00e" stroke="none" /><path d="M 90.42595943632237 118.69057910512821 l -11.51931763285243 22.48817685928243 a46.26683156196896,46.26683156196896 0 0,0 -0.7056993838368059,-0.3691885642107645 l 11.904707919215731 -22.286558876126946" fill="#d9ff1c" stroke="none" /><path d="M 90.10565033884886 118.52300852407294 l -7.122693026806762 13.334247137830275 a36.117370892018776,36.117370892018776 0 0,0 -0.5458490293526823,-0.29764041270112257 l 7.351164868028085 -13.209666073369387" fill="#ffa00e" stroke="none" /><line stroke="#e1ed5e" stroke-width="0.3" x1="58.666819895761336" x2="56.23545636021788" y1="174.27360380694188" y2="178.64263932499728" /><path d="M 58.180547188652646 175.14741091055294 a86.0,86.0 0 0,1 -31.652253787137756,-30.449443065178592" fill="none" id="id32" stroke="none" /><text fill="#e1ed5e" style="font-size:6.75px; font-family:Arial;" text-anchor="middle"><textPath startOffset="22.20632615414155" xlink:href="#id32">August</textPath></text><path d="M 89.7882731507175 118.34994917583269 l -7.357169920684351 13.220456844868373 a36.12972003801953,36.12972003801953 0 0,0 -0.5408296211782384,-0.30709717369108064 l 7.583648308783797 -13.09185650538266" fill="#ffa00e" stroke="none" /><path d="M 89.4739219176387 118.17145234162733 l -6.31978271878245 10.910011267751646 a33.60825124571561,33.60825124571561 0 0,0 -0.49809369458176656,-0.29428253437012175 l 6.506644284392598 -10.799610161087774" fill="#ff7d0b" stroke="none" /><path d="M 89.1626897886671 117.98757091392108 l -21.244967899514002 35.26201236325818 a62.16744073850053,62.16744073850053 0 0,0 -0.9118507064016056,-0.5601331797851252 l 21.848797805847916 -34.891090716644676" fill="#30ff3a" stroke="none" /><path d="M 88.54995079064634 117.60387380957326 l -8.249926065899666 12.683845697690659 a36.13080373858694,36.13080373858694 0 0,0 -0.5184345391093821,-0.3435901431503335 l 8.467035303749011 -12.539957533449007" fill="#ffa00e" stroke="none" /><path d="M 88.24862548938628 117.40417183066458 l -11.284594801193926 16.712855741429895 a41.16585299115758,41.16585299115758 0 0,0 -0.5838555191448802,-0.4015811499467063 l 11.570607204961695 -16.516133802118084" fill="#ffe415" stroke="none" /><path d="M 87.95078237400918 117.19931262002967 l -14.464394147843633 20.646787578262632 a46.20929462254097,46.20929462254097 0 0,0 -0.6475301241330091,-0.4619955505777876 l 14.81765159982553 -20.394747765840627" fill="#daff1c" stroke="none" /><path d="M 87.36589467227662 116.77436683061367 l -32.06554539391811 42.57359006505932 a74.29830928310147,74.29830928310147 0 0,0 -1.0149547835632142,-0.7782240481440412 l 32.793628905974806 -42.01532667508791" fill="#40ffc9" stroke="none" /><path d="M 86.79598089348748 116.32954008644616 l -5.786432521258909 7.156137919158915 a30.202886027823382,30.202886027823382 0 0,0 -0.4014536997393217,-0.33036906405672795 l 5.908756349542919 -7.055473736245006" fill="#ff4b07" stroke="none" /><path d="M 86.51685102203217 116.09983520530335 l -11.658046180779492 13.92053315090305 a39.15740300699905,39.15740300699905 0 0,0 -0.5130263530862292,-0.4372121879691302 l 11.895938010442777 -13.717796572710968" fill="#ffc912" stroke="none" /><path d="M 86.24171649860922 115.8653595955263 l -18.177876313504065 20.961811432915205 a48.745859615772346,48.745859615772346 0 0,0 -0.6291875244284304,-0.5551848359290236 l 18.536006190839082 -20.645803455213894" fill="#bbff1f" stroke="none" /><path d="M 85.97065885151581 115.62618273729859 l -8.743941735420073 9.739190882583143 a34.088481811112075,34.088481811112075 0 0,0 -0.4332491025417497,-0.39576278293481243 l 8.910290387428677 -9.587235333061756" fill="#ff830c" stroke="none" /><path d="M 85.70375840098266 115.38237550388516 l -7.16417982835056 7.708466839607878 a31.523589389095307,31.523589389095307 0 0,0 -0.39429130018539116,-0.3728270347473704 l 7.295806962926768 -7.584005168114577" fill="#ff5f08" stroke="none" /><path d="M 84.67929136418377 114.36230785411682 l -18.38771498850328 17.237454851224154 a46.20392652438146,46.20392652438146 0 0,0 -0.5389437031832691,-0.5849169471313193 l 18.681705099682276 -16.918386649291488" fill="#daff1c" stroke="none" /><path d="M 84.43433777217949 114.09645910891817 l -18.687701549242956 16.923817109286933 a46.21201647512889,46.21201647512889 0 0,0 -0.5288880571286867,-0.594211338887883 l 18.97624845601998 -16.59963160065819" fill="#daff1c" stroke="none" /><path d="M 84.19399662182784 113.82643327865904 l -12.523177496766445 10.954753959812766 a37.63840764422939,37.63840764422939 0 0,0 -0.42237012805671975,-0.4913118803036663 l 12.709890134393943 -10.73756498034757" fill="#ffb510" stroke="none" /><path d="M 83.95833913139862 113.55231037782056 l -15.721888809321323 13.282160657475796 a41.58138915291339,41.58138915291339 0 0,0 -0.45720519454243896,-0.5507331098311818 l 15.948190003757299 -13.009566290530852" fill="#ffe915" stroke="none" /><path d="M 83.50135304334701 112.99209946851258 l -41.78666822324091 32.90551955202361 a74.18739379014373,74.18739379014373 0 0,0 -0.7814164645113523,-1.010086116380377 l 42.34689150497033 -32.18135544152999" fill="#40ffc8" stroke="none" /><path d="M 83.28015986056508 112.70617746262583 l -4.168201552085479 3.1676085524212727 a26.235231429476656,26.235231429476656 0 0,0 -0.2701463434414917,-0.36190517372438064 l 4.222109162222056 -3.0953904991875842" fill="#ff1001" stroke="none" /><path d="M 83.06392112726016 112.41649034213515 l -13.429944530226415 9.846008501021496 a37.65254615628331,37.65254615628331 0 0,0 -0.378713267462723,-0.5259996053073066 l 13.597437590064745 -9.61337529026305" fill="#ffb510" stroke="none" /><path d="M 82.6465618267979 111.8261652097733 l -20.832285457549517 14.196958957596484 a46.20987427633284,46.20987427633284 0 0,0 -0.44228767756683207,-0.661160067582287 l 21.073576240527082 -13.836261975808377" fill="#daff1c" stroke="none" /><path d="M 82.44556493220864 111.52570212397912 l -18.517630977931134 12.158106932475338 a43.152250928886204,43.152250928886204 0 0,0 -0.4023333745813944,-0.6244303320027684 l 18.724169215889575 -11.83755500055112" fill="#fffd18" stroke="none" /><path d="M 82.24976979558568 111.22182372390057 l -44.94773272689788 28.416281233626247 a74.17690961721249,74.17690961721249 0 0,0 -0.6730154382015737,-1.0851151791616616 l 45.43021280476741 -27.638369723099323" fill="#40ffc8" stroke="none" /><line stroke="#e1ed5e" stroke-width="0.3" x1="26.63291911575756" x2="22.317208475507996" y1="142.92168965132927" y2="145.44649492493687" /><path d="M 25.769776987707644 143.4266507060508 a86.0,86.0 0 0,1 -11.730757126820373,-40.83630448921669" fill="none" id="id33" stroke="none" /><text fill="#e1ed5e" style="font-size:6.75px; font-family:Arial;" text-anchor="middle"><textPath startOffset="21.46611528233685" xlink:href="#id33">September</textPath></text><path d="M 81.87401531095188 110.60418214915194 l -21.752525974637777 12.725805058115775 a46.201557504536424,46.201557504536424 0 0,0 -0.39567894723057295,-0.6898995963742298 l 21.968356918020728 -12.349485615883237" fill="#daff1c" stroke="none" /><path d="M 81.69416730710424 110.29060199501025 l -19.90974821614783 11.192241191669744 a43.83997234943402,43.83997234943402 0 0,0 -0.3641297803206912,-0.6610013199264327 l 20.099454405920035 -10.847869353345489" fill="#f8ff18" stroke="none" /><path d="M 81.51974371655577 109.97397251340807 l -14.101892041899704 7.610927113546598 a37.02465508799216,37.02465508799216 0 0,0 -0.29786774337880884,-0.5634535160827312 l 14.2308122935034 -7.367058582377741" fill="#ffac0f" stroke="none" /><path d="M 81.35079622478065 109.6543875284942 l -18.07335990018861 9.356282580290252 a41.35156902560558,41.35156902560558 0 0,0 -0.32179659126616544,-0.6349352034186774 l 18.23173516124104 -9.04379316516889" fill="#ffe615" stroke="none" /><path d="M 81.02952815118164 109.00673069616217 l -56.9114155464551 27.020192088486496 a84.0,84.0 0 0,0 -0.6089015326406932,-1.3115197308846915 l 57.36809169593562 -26.03655229032298" fill="#4dd2ff" stroke="none" /><path d="M 80.73074385275274 108.34839909993369 l -23.453886376282675 10.161388816333574 a46.56048921339901,46.56048921339901 0 0,0 -0.3122856771863544,-0.7381510931707886 l 23.625323034661335 -9.756163197496626" fill="#d6ff1c" stroke="none" /><path d="M 80.58989483394504 108.01547362559985 l -11.662518184612019 4.816079362636236 a33.6178029321121,33.6178029321121 0 0,0 -0.216270347168508,-0.5367652654701514 l 11.743691146037914 -4.6146147293232795" fill="#ff7d0b" stroke="none" /><path d="M 80.45479744820244 107.68017299344265 l -23.452080380249864 9.215357778928523 a46.19767634436475,46.19767634436475 0 0,0 -0.2844582771816185,-0.7426308000441358 l 23.60723293702499 -8.810303412051228" fill="#daff1c" stroke="none" /><path d="M 80.20201598880116 107.00284435728193 l -23.77411287234366 8.40926086632364 a46.21753578732107,46.21753578732107 0 0,0 -0.25883837999040155,-0.7523054918120784 l 23.91534208327729 -7.998782671422264" fill="#daff1c" stroke="none" /><path d="M 80.0844068197444 106.66101706037122 l -47.80848020274937 15.990138951856537 a71.41165860191825,71.41165860191825 0 0,0 -0.3798683635055421,-1.1691146086547168 l 48.07664081727116 -15.164825443224016" fill="#3dffa9" stroke="none" /><path d="M 79.86692584326677 105.97154293290107 l -24.163743360137794 7.1670540609621085 a46.20422895244678,46.20422895244678 0 0,0 -0.21959629792640187,-0.764443521409607 l 24.283532294950298 -6.750053064047906" fill="#daff1c" stroke="none" /><path d="M 79.67330655649465 105.27499134158121 l -24.399760245154777 6.331995136718757 a46.20798410092456,46.20798410092456 0 0,0 -0.19316848539499995,-0.7716120772267706 l 24.505140044844836 -5.911055220094594" fill="#daff1c" stroke="none" /><path d="M 79.58551787078972 104.9243191809786 l -24.497398154774043 5.909187744959476 a46.200020161871024,46.200020161871024 0 0,0 -0.17982683342991804,-0.7746892919105992 l 24.59548555413452 -5.486629795700303" fill="#daff1c" stroke="none" /><path d="M 79.50377843672027 104.57218783832718 l -12.325390646434085 2.7494824371541338 a33.6283375097209,33.6283375097209 0 0,0 -0.12116764208437991,-0.5660548850331141 l 12.370892327242906 -2.536913732704856" fill="#ff7d0b" stroke="none" /><path d="M 79.4281124754447 104.21870165774334 l -61.712823389711204 12.655522738369857 a83.99710173104063,83.99710173104063 0 0,0 -0.27827066653706,-1.4188961335791996 l 61.92152398922393 -11.591362877722702" fill="#4dd2ff" stroke="none" /><path d="M 79.23777060512086 103.15116336523772 l -7.47422417652549 1.134391734177172 a28.559819551254357,28.559819551254357 0 0,0 -0.06958525095879135,-0.4866790831351931 l 7.49264347850088 -1.0055671790615783" fill="#ff3304" stroke="none" /><path d="M 79.1416061653843 102.43462659150553 l -25.031769797961047 2.9217500094097666 a46.20170871856908,46.20170871856908 0 0,0 -0.08540209519874463,-0.7907173356505551 l 25.078354194660843 -2.490436351874429" fill="#daff1c" stroke="none" /><path d="M 79.10278846688536 102.07522291339032 l -10.024695747854501 0.9955145586169716 a31.074004867651716,31.074004867651716 0 0,0 -0.04827628352834588,-0.5327247659374793 l 10.040346627659922 -0.822808404130926" fill="#ff5808" stroke="none" /><path d="M 79.04373962182676 101.35467743843564 l -25.16840694616339 1.6269636106853191 a46.22093810305596,46.22093810305596 0 0,0 -0.04449018211734726,-0.794402088519141 l 25.19268347916827 -1.1934898058307406" fill="#daff1c" stroke="none" /><path d="M 79.0095281055655 100.63252640178507 l -25.186671917341418 0.7589745976621539 a46.19810478412397,46.19810478412397 0 0,0 -0.017110760146779688,-0.7950697885798654 l 25.196004740173205 -0.3253149932921596" fill="#daff1c" stroke="none" /><line stroke="#e1ed5e" stroke-width="0.3" x1="15.007084014347285" x2="10.007500721073583" y1="101.09737516637583" y2="101.16192664675087" /><path d="M 14.007167355692545 101.11028546245083 a86.0,86.0 0 0,1 10.666146001902534,-42.60595125391555" fill="none" id="id34" stroke="none" /><text fill="#e1ed5e" style="font-size:6.75px; font-family:Arial;" text-anchor="middle"><textPath startOffset="22.20632615414155" xlink:href="#id34">October</textPath></text><path d="M 79.00175016825051 100.2711162175752 l -25.448964733033865 0.32858105389300724 a46.45108586076788,46.45108586076788 0 0,0 -0.0034411466751964213,-0.7996012983721361 l 25.450850176998564 0.10952972268280423" fill="#d7ff1c" stroke="none" /><path d="M 79.00019446554 99.90962569577889 l -20.183257319605847 -0.08686022516646681 a41.18344422362395,41.18344422362395 0 0,0 0.009152516240933885,-0.708872469287093 l 20.178771796247197 0.4342689525140318" fill="#ffe415" stroke="none" /><line stroke="#e1ed5e" stroke-width="0.3" x1="26.266209847984243" x2="21.928928074336255" y1="57.711370442889674" y2="55.22380399835377" /><path d="M 25.398753493254645 57.213857153982495 a86.0,86.0 0 0,1 29.58750427330803,-30.492523968695096" fill="none" id="id35" stroke="none" /><text fill="#e1ed5e" style="font-size:6.75px; font-family:Arial;" text-anchor="middle"><textPath startOffset="21.46611528233685" xlink:href="#id35">November</textPath></text><line stroke="#e1ed5e" stroke-width="0.3" x1="56.762969772571076" x2="54.21961505331055" y1="26.818313649435495" y2="22.513508569990535" /><path d="M 56.25429882871897 25.957352633546506 a86.0,86.0 0 0,1 42.265352541879196,-11.944610805530505" fill="none" id="id36" stroke="none" /><text fill="#e1ed5e" style="font-size:6.75px; font-family:Arial;" text-anchor="middle"><textPath startOffset="22.20632615414155" xlink:href="#id36">December</textPath></text></svg>