<?xml version="1.0" encoding="utf-8" ?>
<svg baseProfile="full" height="200mm" version="1.1" viewBox="0,0,200,200" width="200mm" xmlns="http://www.w3.org/2000/svg" xmlns:ev="http://www.w3.org/2001/xml-events" xmlns:xlink="http://www.w3.org/1999/xlink"><defs /><rect fill="#1a1a1a" height="200" width="200" x="0" y="0" /><rect fill="#1a1a1a" height="200" width="180" x="10" y="0" /><text alignment-baseline="middle" fill="#e1ed5e" style="dominant-baseline: central; font-size:9.0px; font-family:Arial;" text-anchor="middle" x="100.0" y="100.0">2023</text><line stroke="#e1ed5e" stroke-width="0.3" x1="100.0" x2="100.0" y1="15.0" y2="10.0" /><path d="M 100.0 14.0 a86.0,86.0 0 0,1 42.46469731375804,11.215312516191453" fill="none" id="id1" stroke="none" /><text fill="#e1ed5e" style="font-size:6.75px; font-family:Arial;" text-anchor="middle"><textPath startOffset="22.20632615414155" xlink:href="#id1">January</textPath></text><line stroke="#e1ed5e" stroke-width="0.3" x1="143.23703022742887" x2="145.7803849466894" y1="26.81831364943548" y2="22.513508569990506" /><path d="M 143.74570117128098 25.957352633546492 a86.0,86.0 0 0,1 28.547481713284135,27.462654790039103" fill="none" id="id2" stroke="none" /><text fill="#e1ed5e" style="font-size:6.75px; font-family:Arial;" text-anchor="middle"><textPath startOffset="19.985693538727396" xlink:href="#id2">February</textPath></text><line stroke="#e1ed5e" stroke-width="0.3" x1="172.23445277983987" x2="176.4835382374775" y1="55.19839476539836" y2="52.563006222186495" /><path d="M 173.08426987136738 54.67131705675599 a86.0,86.0 0 0,1 12.851231095245387,41.99856678651699" fill="none" id="id3" stroke="none" /><text fill="#e1ed5e" style="font-size:6.75px; font-family:Arial;" text-anchor="middle"><textPath startOffset="22.20632615414155" xlink:href="#id3">March</textPath></text><line stroke="#e1ed5e" stroke-width="0.3" x1="184.98032266829074" x2="189.97916517819016" y1="98.17113171792111" y2="98.06355123074" /><path d="M 185.9800911702706 98.14961562048488 a86.0,86.0 0 0,1 -9.607161424134198,41.387399972396054" fill="none" id="id4" stroke="none" /><text fill="#e1ed5e" style="font-size:6.75px; font-family:Arial;" text-anchor="middle"><textPath startOffset="21.466115282336823" xlink:href="#id4">April</textPath></text><line stroke="#e1ed5e" stroke-width="0.3" x1="174.80103733775053" x2="179.2010983576182" y1="140.37084112569926" y2="142.7455964860345" /><path d="M 175.68104954172406 140.8457921977663 a86.0,86.0 0 0,1 -30.038265399797805,32.042727171017184" fill="none" id="id5" stroke="none" /><text fill="#e1ed5e" style="font-size:6.75px; font-family:Arial;" text-anchor="middle"><textPath startOffset="22.206326154141568" xlink:href="#id5">May</textPath></text><line stroke="#e1ed5e" stroke-width="0.3" x1="143.8653032363475" x2="146.44561519142675" y1="172.8068346515853" y2="177.08958963109032" /><path d="M 144.38136562736335 173.6633856474863 a86.0,86.0 0 0,1 -40.68145358897372,12.25698825130547" fill="none" id="id6" stroke="none" /><text fill="#e1ed5e" style="font-size:6.75px; font-family:Arial;" text-anchor="middle"><textPath startOffset="21.466115282336833" xlink:href="#id6">June</textPath></text><line stroke="#e1ed5e" stroke-width="0.3" x1="102.19456741930631" x2="102.32365962044197" y1="184.97166512339345" y2="189.96999836594603" /><path d="M 102.22038585953345 185.97133177190398 a86.0,86.0 0 0,1 -42.740103519485714,-10.115201625700543" fill="none" id="id7" stroke="none" /><text fill="#e1ed5e" style="font-size:6.75px; font-family:Arial;" text-anchor="middle"><textPath startOffset="22.20632615414155" xlink:href="#id7">July</textPath></text><line stroke="#e1ed5e" stroke-width="0.3" x1="58.666819895761336" x2="56.23545636021788" y1="174.27360380694188" y2="178.64263932499728" /><path d="M 58.180547188652646 175.14741091055294 a86.0,86.0 0 0,1 -31.652253787137756,-30.449443065178592" fill="none" id="id8" stroke="none" /><text fill="#e1ed5e" style="font-size:6.75px; font-family:Arial;" text-anchor="middle"><textPath startOffset="22.20632615414155" xlink:href="#id8">August</textPath></text><line stroke="#e1ed5e" stroke-width="0.3" x1="26.63291911575756" x2="22.317208475507996" y1="142.92168965132927" y2="145.44649492493687" /><path d="M 25.769776987707644 143.4266507060508 a86.0,86.0 0 0,1 -11.730757126820373,-40.83630448921669" fill="none" id="id9" stroke="none" /><text fill="#e1ed5e" style="font-size:6.75px; font-family:Arial;" text-anchor="middle"><textPath startOffset="21.46611528233685" xlink:href="#id9">September</textPath></text><path d="M 80.32549172779594 107.34259656027581 l -21.411884926874883 7.990991715671499 a43.85442549533158,43.85442549533158 0 0,0 -0.25785512362987595,-0.7095065558604766 l 21.546264311509983 -7.621237362804905" fill="red" stroke="none" /><path d="M 80.20201598880116 107.00284435728193 l -23.575382520051257 8.33896695531814 a46.00673970849911,46.00673970849911 0 0,0 -0.25765782991084557,-0.7488742606776457 l 23.71543118090533 -7.931919991551196" fill="red" stroke="none" /><path d="M 80.0844068197444 106.66101706037122 l -23.9998486431413 8.027046938113827 a46.30664374112801,46.30664374112801 0 0,0 -0.24632433025304276,-0.7581083360255132 l 24.13446522441059 -7.6127397021105105" fill="red" stroke="none" /><path d="M 79.97269907076064 106.31721596034903 l -28.04298617849788 8.845605330871832 a50.40499630125757,50.40499630125757 0 0,0 -0.25388091145717023,-0.8296975080932636 l 28.19109386246118 -8.36158085022652" fill="red" stroke="none" /><path d="M 79.86692584326677 105.97154293290107 l -25.007929129841347 7.417442626954799 a47.084765179838854,47.084765179838854 0 0,0 -0.22378125025889048,-0.779011889493167 l 25.131903016986342 -6.985873261957035" fill="red" stroke="none" /><path d="M 79.67330655649465 105.27499134158121 l -41.53774455745098 10.77948282628206 a63.9136513585381,63.9136513585381 0 0,0 -0.26718549768428124,-1.0672732482809704 l 41.71714136943032 -10.062881738603696" fill="red" stroke="none" /><path d="M 79.50377843672027 104.57218783832718 l -25.183589457670273 5.617820879243051 a46.80257912309815,46.80257912309815 0 0,0 -0.1686362923583163,-0.7878126159855597 l 25.27655978875303 -5.183494443841328" fill="red" stroke="none" /><path d="M 79.4281124754447 104.21870165774334 l -31.77498449456243 6.516134195366074 a53.43623967850931,53.43623967850931 0 0,0 -0.17702679885534497,-0.9026558334789457 l 31.88244122639344 -5.968214634819174" fill="red" stroke="none" /><path d="M 79.35854240842038 103.8639653848113 l -4.205464330952137 0.7872393957530647 a25.27851330547614,25.27851330547614 0 0,0 -0.0763815048385055,-0.42838804260761565 l 4.218392278129832 -0.7147326024122354" fill="red" stroke="none" /><path d="M 79.29508885075956 103.50808413554451 l -37.08541551037802 6.283473368916443 a58.61396125317392,58.61396125317392 0 0,0 -0.15998330614129563,-0.9962162000578553 l 37.18808057088061 -5.644177939165374" fill="red" stroke="none" /><path d="M 79.18660465613746 102.79330883721812 l -51.527853141983826 6.915412174055691 a72.98983145730452,72.98983145730452 0 0,0 -0.15640153599550624,-1.246674126728073 l 51.63925618722618 -6.027420293040209" fill="red" stroke="none" /><path d="M 79.10278846688536 102.07522291339032 l -32.35493490000649 3.213046016180032 a53.51408121238779,53.51408121238779 0 0,0 -0.08313897640073949,-0.9174316767230054 l 32.405448472684306 -2.65563295090846" fill="red" stroke="none" /><path d="M 79.07016306316243 101.71520430193888 l -22.909084707146626 1.877404050579157 a43.98588279984805,43.98588279984805 0 0,0 -0.05534563779805742,-0.7551472554404906 l 22.93800690360902 -1.4827836586419056" fill="red" stroke="none" /><path d="M 79.0235259727143 100.99374915477108 l -17.826165533158463 0.8445049872701506 a38.846158306175894,38.846158306175894 0 0,0 -0.025893493486241443,-0.6681960117279501 l 17.838061159495904 -0.5375317285282036" fill="red" stroke="none" /><line stroke="#e1ed5e" stroke-width="0.3" x1="15.007084014347285" x2="10.007500721073583" y1="101.09737516637583" y2="101.16192664675087" /><path d="M 14.007167355692545 101.11028546245083 a86.0,86.0 0 0,1 10.666146001902534,-42.60595125391555" fill="none" id="id10" stroke="none" /><text fill="#e1ed5e" style="font-size:6.75px; font-family:Arial;" text-anchor="middle"><textPath startOffset="22.20632615414155" xlink:href="#id10">October</textPath></text><path d="M 79.00019446554 99.90962569577889 l -30.15857071209594 -0.1297897659069543 a51.15884999100306,51.15884999100306 0 0,0 0.01136942803685091,-0.8805747310033788 l 30.151868276941375 0.648900754970805" fill="red" stroke="none" /><path d="M 79.01574976396665 99.18683210126434 l -38.41602553607269 -1.4886726193010025 a59.444858748025666,59.444858748025666 0 0,0 0.04842319248800251,-1.022137060108387 l 38.38470873535119 2.1497207860323986" fill="red" stroke="none" /><path d="M 79.03285615573316 98.82574320788736 l -31.961972511756212 -1.790017924711754 a53.01205790031389,53.01205790031389 0 0,0 0.05886713618453091,-0.9106485415634644 l 31.926424784567267 2.3399255305282303" fill="red" stroke="none" /><path d="M 79.12142395522702 97.74499172005258 l -36.50826713523467 -3.943106297093343 a57.72058899974009,57.72058899974009 0 0,0 0.11519283378114457,-0.9869018527587515 l 36.43498394844993 4.570951888176956" fill="red" stroke="none" /><path d="M 79.16333360222342 97.38593545837743 l -29.789388383397025 -3.7372285183761766 a51.022900213927265,51.022900213927265 0 0,0 0.11682786580754893,-0.8705032991102526 l 29.720644518531643 4.249450159551088" fill="red" stroke="none" /><path d="M 79.26566170972629 96.67025291283419 l -36.257545438224945 -5.822633672729461 a57.722100485834815,57.722100485834815 0 0,0 0.1659871522610569,-0.9796655686387323 l 36.151946424443665 6.445885029684022" fill="red" stroke="none" /><path d="M 79.3925641242962 95.95851677861259 l -41.23600779436147 -8.087111595208137 a63.02153867684987,63.02153867684987 0 0,0 0.2179365957730114,-1.0627362395958198 l 41.09069190267346 8.79572349096736" fill="red" stroke="none" /><path d="M 79.54389044137918 95.25157060432595 l -26.634822299426236 -6.182679692476048 a48.34299338225003,48.34299338225003 0 0,0 0.19513810362015704,-0.8089734200149861 l 26.524451395545267 6.640238344150431" fill="red" stroke="none" /><path d="M 79.62865764111835 94.90015583598534 l -35.95191454700972 -9.000347564616089 a58.061387128376346,58.061387128376346 0 0,0 0.25105652037879495,-0.9674231854195272 l 35.79166169476062 9.617867175584479" fill="red" stroke="none" /><path d="M 79.81627453868168 94.20196356495316 l -39.97032985926851 -11.48199470355572 a62.586818481716215,62.586818481716215 0 0,0 0.3063598027838313,-1.03289295537102 l 39.76676415937297 12.16831704567328" fill="red" stroke="none" /><path d="M 80.02781315780177 93.51064311812611 l -42.06865216534913 -13.668933682493025 a65.23359857648398,65.23359857648398 0 0,0 0.35618385475169095,-1.0649443897708013 l 41.82713101682566 14.39105117518615" fill="red" stroke="none" /><path d="M 80.38941819471856 92.48833698450439 l -28.932832206010676 -11.082470054860867 a51.98273586980427,51.98273586980427 0 0,0 0.3272596655611669,-0.8328401529350639 l 28.73777899056782 11.578859212691693" fill="red" stroke="none" /><path d="M 80.65960295795068 91.81776055985345 l -58.02119112614798 -24.546718320439627 a84.0,84.0 0 0,0 0.574837160629277,-1.3268034216536029 l 57.59006325567602 25.54182088667983" fill="red" stroke="none" /><path d="M 81.43458229118936 90.18545643968196 l -25.0516773464215 -13.243482179170307 a49.33683747525841,49.33683747525841 0 0,0 0.4033683526036404,-0.7473802963388008 l 24.820000894599385 13.67274345884158" fill="red" stroke="none" /><path d="M 81.6062741919709 89.86733742301443 l -32.09507855904342 -17.680409331679463 a57.6427474658616,57.6427474658616 0 0,0 0.4862367737374995,-0.8649609647218047 l 31.78598414401349 18.23025380633605" fill="red" stroke="none" /><line stroke="#e1ed5e" stroke-width="0.3" x1="26.266209847984243" x2="21.928928074336255" y1="57.711370442889674" y2="55.22380399835377" /><path d="M 25.398753493254645 57.213857153982495 a86.0,86.0 0 0,1 29.58750427330803,-30.492523968695096" fill="none" id="id11" stroke="none" /><text fill="#e1ed5e" style="font-size:6.75px; font-family:Arial;" text-anchor="middle"><textPath startOffset="21.46611528233685" xlink:href="#id11">November</textPath></text><path d="M 82.15384107792192 88.93136811851018 l -23.99699492635502 -14.883533440532277 a49.23783513605374,49.23783513605374 0 0,0 0.4529233794703094,-0.7164160165371842 l 23.737243950638746 15.294397104783677" fill="red" stroke="none" /><path d="M 82.95767976084542 87.72973835380427 l -27.88395766694137 -20.076107683902368 a55.3593538197013,55.3593538197013 0 0,0 0.5634458884931602,-0.768539558691452 l 27.534249165934575 20.553109686265323" fill="red" stroke="none" /><line stroke="#e1ed5e" stroke-width="0.3" x1="56.762969772571076" x2="54.21961505331055" y1="26.818313649435495" y2="22.513508569990535" /><path d="M 56.25429882871897 25.957352633546506 a86.0,86.0 0 0,1 42.265352541879196,-11.944610805530505" fill="none" id="id12" stroke="none" /><text fill="#e1ed5e" style="font-size:6.75px; font-family:Arial;" text-anchor="middle"><textPath startOffset="22.20632615414155" xlink:href="#id12">December</textPath></text><path d="M 98.91598698831166 79.02799685794201 l -0.4349987715956135 -8.415762086181903 a29.426996821080834,29.426996821080834 0 0,0 0.5060871274849315,-0.021793176292055665 l 0.290070811721358 8.422002988998152" fill="red" stroke="none" /></svg>