<?xml version="1.0" encoding="utf-8" ?>
<svg baseProfile="full" height="200mm" version="1.1" viewBox="0,0,200,200" width="200mm" xmlns="http://www.w3.org/2000/svg" xmlns:ev="http://www.w3.org/2001/xml-events" xmlns:xlink="http://www.w3.org/1999/xlink"><defs /><rect fill="#1a1a1a" height="200" width="200" x="0" y="0" /><text alignment-baseline="middle" fill="#e1ed5e" style="dominant-baseline: central; font-size:9.0px; font-family:Arial;" text-anchor="middle" x="100.0" y="100.0">2024</text><line stroke="#e1ed5e" stroke-width="0.3" x1="100.0" x2="100.0" y1="15.0" y2="10.0" /><path d="M 100.0 14.0 a86.0,86.0 0 0,1 42.35913384403234,11.155469271406648" fill="none" id="id13" stroke="none" /><text fill="#e1ed5e" style="font-size:6.75px; font-family:Arial;" text-anchor="middle"><textPath startOffset="22.145653131862478" xlink:href="#id13">January</textPath></text><line stroke="#e1ed5e" stroke-width="0.3" x1="143.13028292997686" x2="145.6673583964461" y1="26.7553504044142" y2="22.446841604673864" /><path d="M 143.63769802327073 25.89364864446614 a86.0,86.0 0 0,1 29.32050498858742,28.57503671076993" fill="none" id="id14" stroke="none" /><text fill="#e1ed5e" style="font-size:6.75px; font-family:Arial;" text-anchor="middle"><textPath startOffset="20.669276256404974" xlink:href="#id14">February</textPath></text><line stroke="#e1ed5e" stroke-width="0.3" x1="172.87174338648825" x2="177.1583165268699" y1="56.24261187166439" y2="53.66864786411523" /><path d="M 173.72905801456457 55.72781907015455 a86.0,86.0 0 0,1 12.242430191666344,42.057860355516425" fill="none" id="id15" stroke="none" /><text fill="#e1ed5e" style="font-size:6.75px; font-family:Arial;" text-anchor="middle"><textPath startOffset="22.145653131862474" xlink:href="#id15">March</textPath></text><path d="M 118.00360718960297 89.18935116829356 l 12.8040518916072 -7.6884652706180585 a35.935067561295796,35.935067561295796 0 0,0 0.3130223135820941,0.5315803216766026 l -12.934147915319063 7.4675337806479" fill="#ffa20f" stroke="none" /><path d="M 118.18653347947321 89.5 l 12.936473378359471 -7.46887638736027 a35.937752774720536,35.937752774720536 0 0,0 0.3038736109000397,0.536915553853343 l -13.062780354280886 7.245704063407809" fill="#ffa20f" stroke="none" /><path d="M 118.36410011445183 89.81374322990088 l 13.060719184585286 -7.24456076732277 a35.93539575404771,35.93539575404771 0 0,0 0.2945926424986873,0.542017281536756 l -13.183157176699314 7.01928865231141" fill="#ffa20f" stroke="none" /><path d="M 118.70294669586156 90.45014215332178 l 13.310345987520286 -6.796357501197871 a35.945092358081496,35.945092358081496 0 0,0 0.2758872907565574,0.5519593910825284 l -13.42505319148858 6.566866253951592" fill="#ffa20f" stroke="none" /><path d="M 118.8641267826498 90.77261029715802 l 13.428510542089793 -6.568557417380694 a35.9489411639903,35.9489411639903 0 0,0 0.2664000428331255,0.5566736300250862 l -13.53928984288283 6.337071285290504" fill="#ffa30f" stroke="none" /><path d="M 119.16976305983485 91.42560881287824 l 27.24711075480153 -12.187286071365428 a50.84853407237479,50.84853407237479 0 0,0 0.3495621651979316,0.7998666428762138 l -27.45230680201643 11.717757358713364" fill="#9fff22" stroke="none" /><path d="M 119.31412917781788 91.75594674310238 l 13.752441407081939 -5.870099465968089 a35.95284964130853,35.95284964130853 0 0,0 0.23741576478644114,0.5697114073130141 l -13.851183016404862 5.633155549213797" fill="#ffa30f" stroke="none" /><path d="M 119.58574465831526 92.42381321644754 l 22.27011152232684 -8.614557553320262 a44.87820070810072,44.87820070810072 0 0,0 0.2717680997946407,0.7208971726978755 l -22.41471030593592 8.230992100428228" fill="#e7ff1a" stroke="none" /><path d="M 119.71291397450082 92.76114493625339 l 14.0204002741045 -5.148485183430406 a35.93581345391378,35.93581345391378 0 0,0 0.20767448619521683,0.5809024991247657 l -14.106714930343658 4.9070477279247235" fill="#ffa20f" stroke="none" /><path d="M 119.83427380445688 93.10060997987247 l 25.476467574630618 -8.862037897904381 a47.97380425125642,47.97380425125642 0 0,0 0.26388922731684616,0.7801416105194482 l -25.624842223519828 8.423394612910771" fill="#c1ff1e" stroke="none" /><path d="M 120.05942366710727 93.78553927170692 l 14.431831017497144 -4.471018140100501 a36.10853234853407,36.10853234853407 0 0,0 0.1783480883075247,0.593662781403655 l -14.506455425808296 4.222617755106123" fill="#ffa50f" stroke="none" /><path d="M 120.16314734710363 94.1308016681162 l 14.342338205844959 -4.174845624244788 a35.937603596196944,35.937603596196944 0 0,0 0.16733490813628857,0.5938125562759484 l -14.41189160605583 3.9280251440658263" fill="#ffa20f" stroke="none" /><path d="M 120.26092885502905 94.47779374421319 l 14.410481108177628 -3.9276407065969168 a35.936141646665696,35.936141646665696 0 0,0 0.15711027725976823,0.5965733131261077 l -14.475780866242127 3.67968688909801" fill="#ffa20f" stroke="none" /><path d="M 120.43855184770803 95.1765574152323 l 14.54401597630225 -3.432348169104993 a35.943540901436094,35.943540901436094 0 0,0 0.13656686481392213,0.601738804647773 l -14.600793702673839 3.1821750305181937" fill="#ffa20f" stroke="none" /><path d="M 120.51834098615036 95.52812308129327 l 14.856713744193883 -3.2379516124299785 a36.20546855316722,36.20546855316722 0 0,0 0.12713686341842625,0.6083959155198259 l -14.910108318436675 2.9824392456247484" fill="#ffa60f" stroke="none" /><path d="M 120.592083275326 95.88100663000786 l 14.637031340483052 -2.927816202067216 a35.92698208531686,35.92698208531686 0 0,0 0.11577676594409132,0.6057929620240362 l -14.6851343987093 2.6761206750098654" fill="#ffa20f" stroke="none" /><path d="M 120.65975698304385 96.23510406497455 l 14.69681661617358 -2.678249564186996 a35.93885669579515,35.93885669579515 0 0,0 0.10539528803480862,0.6078920136768975 l -14.740626721700623 2.4255645175895055" fill="#ffa20f" stroke="none" /><path d="M 120.82617615685814 97.30363454192243 l 35.518358929497744 -4.598562665742228 a56.814809780807025,56.814809780807025 0 0,0 0.11692464515621598,0.9683037935687788 l -35.592065660913626 3.9881651952500365" fill="#5dff2a" stroke="none" /><path d="M 120.86939407059847 97.66154086499901 l 14.845620864994137 -1.6634827829244783 a35.938528503043244,35.938528503043244 0 0,0 0.06343596520653638,0.6136854189046324 l -14.87198922268234 1.4083928417369145" fill="#ffa20f" stroke="none" /><path d="M 120.93736805541906 98.37931529534042 l 14.92208538777556 -1.1550637828775554 a35.96672324400302,35.96672324400302 0 0,0 0.042365441091856144,0.6159842155393735 l -14.939714790032482 0.8987361431838476" fill="#ffa30f" stroke="none" /><path d="M 120.96210409425399 98.7389718711861 l 14.904036116729309 -0.8965898027958902 a35.930980069749246,35.930980069749246 0 0,0 0.03175342282676722,0.6160079198442026 l -14.917231129012649 0.6406100895749569" fill="#ffa20f" stroke="none" /><path d="M 120.98066250479742 99.09900007780936 l 14.915204169303651 -0.6405230432035818 a35.92895124182834,35.92895124182834 0 0,0 0.021172953213933695,0.6164274311053302 l -14.924001809514435 0.38438934753413173" fill="#ffa20f" stroke="none" /><line stroke="#e1ed5e" stroke-width="0.3" x1="184.99686870605535" x2="189.99668451229388" y1="99.2704041080226" y2="99.22748670261217" /><path d="M 185.99683186730306 99.26182062694052 a86.0,86.0 0 0,1 -10.086455211305974,41.156179273409016" fill="none" id="id16" stroke="none" /><text fill="#e1ed5e" style="font-size:6.75px; font-family:Arial;" text-anchor="middle"><textPath startOffset="21.40746469413373" xlink:href="#id16">April</textPath></text><path d="M 120.99922638620191 99.81974689727618 l 62.99767915860572 -0.5407593081714844 a84.0,84.0 0 0,0 0.0,1.442024821790615 l -62.99767915860572 -0.5407593081714768" fill="#4dd2ff" stroke="none" /><path d="M 120.93736805541906 101.62068470465957 l 14.889423488645557 1.1525355453166009 a35.93396364022118,35.93396364022118 0 0,0 -0.05288517324906378,0.6146058773302788 l -14.86744469269875 -1.4079624700225368" fill="#ffa20f" stroke="none" /><path d="M 120.9064616781168 101.97986365728391 l 21.3834987132781 2.025039560487223 a42.47917136302759,42.47917136302759 0 0,0 -0.07498101198994081,0.7253732737119094 l -21.345585308806495 -2.391817356482064" fill="#fff917" stroke="none" /><path d="M 120.82617615685814 102.69636545807757 l 14.795585573041826 1.9155847703729096 a35.91907562356623,35.91907562356623 0 0,0 -0.0844192067757655,0.6108153268486105 l -14.760521849710852 -2.169288405421605" fill="#ffa20f" stroke="none" /><path d="M 120.7213421655516 103.40968896794604 l 26.04739491457152 4.286088920996493 a47.397676793125854,47.397676793125854 0 0,0 -0.1389997417023212,0.8017135723950698 l -25.969980355376965 -4.73259552631215" fill="#c8ff1d" stroke="none" /><path d="M 120.65975698304385 103.76489593502545 l 44.92338021280216 8.186536351303344 a66.66321788020633,66.66321788020633 0 0,0 -0.2148260534455152,1.1240606884764928 l -44.77622786707448 -8.95649960481315" fill="#36ff73" stroke="none" /><path d="M 120.51834098615036 104.47187691870673 l 15.884854072747329 3.462030011729074 a37.257744022913826,37.257744022913826 0 0,0 -0.14156015694730406,0.6237401711116815 l -15.82308305424236 -3.7342045167797724" fill="#ffb410" stroke="none" /><path d="M 119.16976305983485 108.57439118712176 l 13.648094472379995 6.104619060742239 a35.951149006139524,35.951149006139524 0 0,0 -0.2568205170110304,0.5611991783930463 l -13.54128949051391 -6.338007221349975" fill="#ffa30f" stroke="none" /><path d="M 118.8641267826498 109.22738970284198 l 26.952192029798834 13.183667713340661 a51.00382891543899,51.00382891543899 0 0,0 -0.39146674148211485,0.783195716138261 l -26.72190537510499 -13.644395285642666" fill="#9dff22" stroke="none" /><path d="M 118.70294669586154 109.54985784667822 l 13.298840237394824 6.790482583202098 a35.932173497938024,35.932173497938024 0 0,0 -0.2852192088713544,0.5469454405731765 l -13.180312959548521 -7.017774266879778" fill="#ffa20f" stroke="none" /><path d="M 118.5362547648365 109.86951160357373 l 23.50587463070378 12.51555426719592 a47.630156604298996,47.630156604298996 0 0,0 -0.3904644265704642,0.7184105659647337 l -23.287564854517974 -12.917219666635257" fill="#c5ff1e" stroke="none" /><line stroke="#e1ed5e" stroke-width="0.3" x1="174.33088141563837" x2="178.70328620479359" y1="141.23008692659167" y2="143.65538615756765" /><path d="M 175.20536237346943 141.71514677278685 a86.0,86.0 0 0,1 -30.301960400862466,31.631185727798858" fill="none" id="id17" stroke="none" /><text fill="#e1ed5e" style="font-size:6.75px; font-family:Arial;" text-anchor="middle"><textPath startOffset="22.145653131862474" xlink:href="#id17">May</textPath></text><path d="M 118.00360718960297 110.81064883170644 l 25.58687355675567 15.364182400241603 a50.84537148767454,50.84537148767454 0 0,0 -0.45574894157838614,0.7444316452056493 l -25.31935665072188 -15.80115116157181" fill="#9fff22" stroke="none" /><path d="M 117.81537515405839 111.11811171558189 l 13.247555230813239 8.267454248976078 a36.61564982164879,36.61564982164879 0 0,0 -0.33735621191003234,0.5303799984999945 l -13.103681327277318 -8.493647922154743" fill="#ffac0f" stroke="none" /><path d="M 117.62189284568427 111.42229804090321 l 40.081209604638936 25.980155818290644 a68.76475541352286,68.76475541352286 0 0,0 -0.6505655411552691,0.9850391471181266 l -39.62931962456294 -26.664374843747833" fill="#39ff8c" stroke="none" /><path d="M 117.21940702142032 112.02048342749411 l 29.49855566173563 20.59228282517583 a56.97508718655935,56.97508718655935 0 0,0 -0.5667254987243501,0.7971703869344129 l -29.14071506448132 -21.095630438819747" fill="#5bff2a" stroke="none" /><path d="M 116.35404254752997 113.17365903436017 l 34.86212177749962 28.082457543837478 a65.76596873218145,65.76596873218145 0 0,0 -0.7157629209330016,0.8731143821152595 l -34.37491203732799 -28.67677420765123" fill="#35ff68" stroke="none" /><path d="M 116.1254893667686 113.45245675266167 l 11.466032404875559 9.565372035721067 a35.93205415511915,35.93205415511915 0 0,0 -0.3991973132736225,0.4702534312689605 l -11.300140528094822 -9.760792249439586" fill="#ffa20f" stroke="none" /><path d="M 115.6541949942343 113.99807769240083 l 23.030696643084696 20.59419095256922 a51.89552862238607,51.89552862238607 0 0,0 -0.5995225980865186,0.6589803561981765 l -22.673776344156295 -20.986508884325072" fill="#93ff23" stroke="none" /><path d="M 115.16444852881244 114.52719865689866 l 21.553195409269758 20.64747364907559 a50.847251137071865,50.847251137071865 0 0,0 -0.6092304529184244,0.6251241149678523 l -21.195578155200526 -21.01442045611118" fill="#9fff22" stroke="none" /><path d="M 114.65682725009322 115.03919595460226 l 13.792673302911123 14.15249787698578 a40.76185803508679,40.76185803508679 0 0,0 -0.5053063416088189,0.484072044769365 l -13.547694475436993 -14.387182052060727" fill="#ffe315" stroke="none" /><path d="M 114.39649973595853 115.28858382429668 l 30.692925306710894 32.59482304524791 a65.77139883044038,65.77139883044038 0 0,0 -0.8286263823604704,0.7669642088392578 l -30.128869153036455 -33.11690500021954" fill="#35ff68" stroke="none" /><path d="M 113.59037401385872 116.0094264158162 l 15.155237392962347 17.852831541607262 a44.41804463421426,44.41804463421426 0 0,0 -0.5855264181472871,0.4884669629871673 l -14.846536640653165 -18.1103606885063" fill="#edff1a" stroke="none" /><path d="M 112.16784306229584 117.11559508785304 l 17.294023307608825 24.326209572025533 a50.84707212284354,50.84707212284354 0 0,0 -0.7157449580454521,0.4996455682704583 l -16.873883258389615 -24.619499956101116" fill="#9fff22" stroke="none" /><path d="M 111.8722381534696 117.32195027204791 l 17.958443860431426 26.201906286966395 a52.76547810059273,52.76547810059273 0 0,0 -0.7515404933439794,0.5056699841083868 l -17.506007078990447 -26.506325945131902" fill="#89ff24" stroke="none" /><line stroke="#e1ed5e" stroke-width="0.3" x1="143.1302829299769" x2="145.66735839644613" y1="173.24464959558577" y2="177.55315839532614" /><path d="M 143.63769802327073 174.10635135553383 a86.0,86.0 0 0,1 -40.68552437913181,11.842963189579606" fill="none" id="id18" stroke="none" /><text fill="#e1ed5e" style="font-size:6.75px; font-family:Arial;" text-anchor="middle"><textPath startOffset="21.407464694133747" xlink:href="#id18">June</textPath></text><path d="M 110.65571695917076 118.09573695890943 l 1.8963220242991397 3.2203693728530056 a24.737220373145213,24.737220373145213 0 0,0 -0.36776888212824466,0.21233146309631062 l -1.8407606743104965 -3.252447733225488" fill="#ff0000" stroke="none" /><path d="M 108.4095320186766 119.2426549942271 l 11.95610432508634 27.357906491308956 a50.85638086271598,50.85638086271598 0 0,0 -0.8029615284690642,0.3427365294595555 l -11.484707721446846 -27.559117670427916" fill="#9fff22" stroke="none" /><path d="M 108.07796709384702 119.3841803445677 l 6.064994116845105 14.553777996844852 a36.76694668028059,36.76694668028059 0 0,0 -0.5846741818823159,0.2377818998024679 l -5.814265473772348 -14.655747153226612" fill="#ffae10" stroke="none" /><path d="M 103.2317021107853 120.74984581791261 l 1.809924840444984 11.621015828131965 a32.761115457547106,32.761115457547106 0 0,0 -0.5564317807616684,0.08177630999123867 l -1.61016795407563 -11.650373211422087" fill="#ff760a" stroke="none" /><line stroke="#e1ed5e" stroke-width="0.3" x1="101.45913802915013" x2="101.54496967792366" y1="184.9874750549273" y2="189.98673829345242" /><path d="M 101.47630435890484 185.9873277026323 a86.0,86.0 0 0,1 -42.54439059252881,-10.42667462771756" fill="none" id="id19" stroke="none" /><text fill="#e1ed5e" style="font-size:6.75px; font-family:Arial;" text-anchor="middle"><textPath startOffset="22.145653131862474" xlink:href="#id19">July</textPath></text><path d="M 98.19965949673042 120.92268563240118 l -1.403199898305703 16.307309810754916 a37.36756925198573,37.36756925198573 0 0,0 -0.638630329513255,-0.06047895618635575 l 1.6829297912039733 -16.280819099063375" fill="#ffb610" stroke="none" /><path d="M 95.70440661134978 120.55596938700252 l -3.2632744742070194 15.615949677738106 a36.953270656252904,36.953270656252904 0 0,0 -0.6198252739989286,-0.1350880335938368 l 3.5308621648250846 -15.55763018601055" fill="#ffb010" stroke="none" /><path d="M 95.35216902796893 120.47920084513623 l -3.348344304035254 14.753422814565166 a36.12861177781019,36.12861177781019 0 0,0 -0.6036365810879991,-0.14245658951957188 l 3.601113038863141 -14.693770081399368" fill="#ffa50f" stroke="none" /><path d="M 94.30408787586889 120.21278271476187 l -5.884906012619929 20.883455351416195 a42.6967929932505,42.6967929932505 0 0,0 -0.7037651141918488,-0.2048557679585782 l 6.242531139193384 -20.779355889155102" fill="#fffc17" stroke="none" /><path d="M 93.27111125876986 119.89276391827306 l -6.996707285436796 20.68452185598341 a42.83582737724265,42.83582737724265 0 0,0 -0.694540570077474,-0.24159726365628117 l 7.350753627559292 -20.56136615975854" fill="#fffd18" stroke="none" /><path d="M 92.59220618246901 119.65005319985036 l -7.737712184290533 20.525200864339972 a42.93526978107223,42.93526978107223 0 0,0 -0.6874299341771383,-0.2659126662166505 l 8.0889143809612 -20.38934830998528" fill="#ffff18" stroke="none" /><path d="M 91.59046798132341 119.24265499422711 l -9.900803714095423 22.654976473456887 a45.72395342978001,45.72395342978001 0 0,0 -0.7165304877235102,-0.32049497325886145 l 10.288247604674568 -22.48167774928817" fill="#dcff1b" stroke="none" /><path d="M 91.26138138417905 119.09545874513695 l -10.266309639601067 22.43373933643023 a45.67123373954093,45.67123373954093 0 0,0 -0.7101034889225387,-0.3323642880428551 l 10.649901842395094 -22.25419881681685" fill="#ddff1b" stroke="none" /><line stroke="#e1ed5e" stroke-width="0.3" x1="58.13341422392154" x2="55.67067388415222" y1="173.97424548756322" y2="178.32567169271397" /><path d="M 57.64086615596768 174.84453072859336 a86.0,86.0 0 0,1 -31.369924170532247,-30.572349798747897" fill="none" id="id20" stroke="none" /><text fill="#e1ed5e" style="font-size:6.75px; font-family:Arial;" text-anchor="middle"><textPath startOffset="22.145653131862474" xlink:href="#id20">August</textPath></text><path d="M 89.03521579738668 117.91015095944536 l -10.534005610119609 17.206506502874934 a41.17496320263085,41.17496320263085 0 0,0 -0.5996562258632444,-0.3742298353213682 l 10.827825964772567 -17.023140870712016" fill="#ffe815" stroke="none" /><path d="M 86.68645165197938 116.24036423190432 l -15.139343860932573 18.467537887459137 a44.87990134326973,44.87990134326973 0 0,0 -0.5916146939094862,-0.49354601916502067 l 15.45413288900395 -18.204929684382247" fill="#e7ff1a" stroke="none" /><path d="M 85.60350026404147 115.28858382429668 l -30.706874795554125 32.609636918994816 a65.79174678105898,65.79174678105898 0 0,0 -0.8155905661948469,-0.7813173130096595 l 31.262137847614284 -32.07770747567958" fill="#35ff68" stroke="none" /><line stroke="#e1ed5e" stroke-width="0.3" x1="26.387840678322732" x2="22.057713659400548" y1="142.50000000000003" y2="145.00000000000006" /><path d="M 25.521815274538298 143.00000000000003 a86.0,86.0 0 0,1 -11.493303480769221,-40.785679425670985" fill="none" id="id21" stroke="none" /><text fill="#e1ed5e" style="font-size:6.75px; font-family:Arial;" text-anchor="middle"><textPath startOffset="21.40746469413373" xlink:href="#id21">September</textPath></text><line stroke="#e1ed5e" stroke-width="0.3" x1="15.003131293944662" x2="10.003315487706104" y1="100.72959589197737" y2="100.7725132973878" /><path d="M 14.003168132696942 100.73817937305945 a86.0,86.0 0 0,1 10.791469493833604,-42.45332614584628" fill="none" id="id22" stroke="none" /><text fill="#e1ed5e" style="font-size:6.75px; font-family:Arial;" text-anchor="middle"><textPath startOffset="22.145653131862435" xlink:href="#id22">October</textPath></text><path d="M 81.63589988554816 89.8137432299009 l -13.053465954517224 -7.2405375228716045 a35.927101428135735,35.927101428135735 0 0,0 0.30378354786333484,-0.5367564210971597 l 12.92724904163252 7.463550714067869" fill="#ffa20f" stroke="none" /><line stroke="#e1ed5e" stroke-width="0.3" x1="26.387840678322718" x2="22.05771365940052" y1="57.49999999999999" y2="54.99999999999999" /><path d="M 25.521815274538284 56.99999999999999 a86.0,86.0 0 0,1 29.574782752854787,-30.34633250058573" fill="none" id="id23" stroke="none" /><text fill="#e1ed5e" style="font-size:6.75px; font-family:Arial;" text-anchor="middle"><textPath startOffset="21.40746469413373" xlink:href="#id23">November</textPath></text><path d="M 81.81346652052679 89.5 l -12.929522827716475 -7.46486348507552 a35.92972697015104,35.92972697015104 0 0,0 0.31297579289046346,-0.5315013193718252 l 12.799473324696232 7.685715972740918" fill="#ffa20f" stroke="none" /><path d="M 82.37810715431573 88.57770195909679 l -12.527772094411144 -8.120350515348843 a35.92933910598968,35.92933910598968 0 0,0 0.3399181717185663,-0.5146794362409975 l 12.386529483771849 8.334209829928902" fill="#ffa20f" stroke="none" /><line stroke="#e1ed5e" stroke-width="0.3" x1="56.869717070023135" x2="54.33264160355391" y1="26.7553504044142" y2="22.446841604673864" /><path d="M 56.362301976729285 25.89364864446614 a86.0,86.0 0 0,1 42.16139366436587,-11.88097634709845" fill="none" id="id24" stroke="none" /><text fill="#e1ed5e" style="font-size:6.75px; font-family:Arial;" text-anchor="middle"><textPath startOffset="22.145653131862474" xlink:href="#id24">December</textPath></text></svg>