<?xml version="1.0" encoding="utf-8" ?>
<svg baseProfile="full" height="200mm" version="1.1" viewBox="0,0,200,200" width="200mm" xmlns="http://www.w3.org/2000/svg" xmlns:ev="http://www.w3.org/2001/xml-events" xmlns:xlink="http://www.w3.org/1999/xlink"><defs /><rect fill="#1a1a1a" height="200" width="200" x="0" y="0" /><rect fill="#1a1a1a" height="200" width="180" x="10" y="0" /><text alignment-baseline="middle" fill="#e1ed5e" style="dominant-baseline: central; font-size:9.0px; font-family:Arial;" text-anchor="middle" x="100.0" y="100.0">2025</text><line stroke="#e1ed5e" stroke-width="0.3" x1="100.0" x2="100.0" y1="15.0" y2="10.0" /><path d="M 100.0 14.0 a86.0,86.0 0 0,1 42.46469731375804,11.215312516191453" fill="none" id="id25" stroke="none" /><text fill="#e1ed5e" style="font-size:6.75px; font-family:Arial;" text-anchor="middle"><textPath startOffset="22.20632615414155" xlink:href="#id25">January</textPath></text><line stroke="#e1ed5e" stroke-width="0.3" x1="143.23703022742887" x2="145.7803849466894" y1="26.81831364943548" y2="22.513508569990506" /><path d="M 143.74570117128098 25.957352633546492 a86.0,86.0 0 0,1 28.547481713284135,27.462654790039103" fill="none" id="id26" stroke="none" /><text fill="#e1ed5e" style="font-size:6.75px; font-family:Arial;" text-anchor="middle"><textPath startOffset="19.985693538727396" xlink:href="#id26">February</textPath></text><line stroke="#e1ed5e" stroke-width="0.3" x1="172.23445277983987" x2="176.4835382374775" y1="55.19839476539836" y2="52.563006222186495" /><path d="M 173.08426987136738 54.67131705675599 a86.0,86.0 0 0,1 12.851231095245387,41.99856678651699" fill="none" id="id27" stroke="none" /><text fill="#e1ed5e" style="font-size:6.75px; font-family:Arial;" text-anchor="middle"><textPath startOffset="22.20632615414155" xlink:href="#id27">March</textPath></text><line stroke="#e1ed5e" stroke-width="0.3" x1="184.98032266829074" x2="189.97916517819016" y1="98.17113171792111" y2="98.06355123074" /><path d="M 185.9800911702706 98.14961562048488 a86.0,86.0 0 0,1 -9.607161424134198,41.387399972396054" fill="none" id="id28" stroke="none" /><text fill="#e1ed5e" style="font-size:6.75px; font-family:Arial;" text-anchor="middle"><textPath startOffset="21.466115282336823" xlink:href="#id28">April</textPath></text><path d="M 120.49622156327973 104.57218783832717 l 3.06181729800193 0.683013879894069 a24.13707397529478,24.13707397529478 0 0,0 -0.09395003651585604,0.4047342984094077 l -3.049606695555521 -0.7356168356520416" fill="#ff0a01" stroke="none" /><path d="M 119.79798401119884 107.00284435728193 l 4.361434182657972 1.542704789457673 a25.626234559236384,25.626234559236384 0 0,0 -0.15067705951691002,0.41459855456848466 l -4.334232862135836 -1.617551141032289" fill="#ff2003" stroke="none" /><line stroke="#e1ed5e" stroke-width="0.3" x1="174.80103733775053" x2="179.2010983576182" y1="140.37084112569926" y2="142.7455964860345" /><path d="M 175.68104954172406 140.8457921977663 a86.0,86.0 0 0,1 -30.038265399797805,32.042727171017184" fill="none" id="id29" stroke="none" /><text fill="#e1ed5e" style="font-size:6.75px; font-family:Arial;" text-anchor="middle"><textPath startOffset="22.206326154141568" xlink:href="#id29">May</textPath></text><line stroke="#e1ed5e" stroke-width="0.3" x1="143.8653032363475" x2="146.44561519142675" y1="172.8068346515853" y2="177.08958963109032" /><path d="M 144.38136562736335 173.6633856474863 a86.0,86.0 0 0,1 -40.68145358897372,12.25698825130547" fill="none" id="id30" stroke="none" /><text fill="#e1ed5e" style="font-size:6.75px; font-family:Arial;" text-anchor="middle"><textPath startOffset="21.466115282336833" xlink:href="#id30">June</textPath></text><path d="M 110.21172684928248 118.3499491758327 l 3.5821745856488523 6.436983926008027 a28.366596013475576,28.366596013475576 0 0,0 -0.42871002283880366,0.23376688656599884 l -3.4708417509414 -6.497691464333797" fill="#ff4806" stroke="none" /><path d="M 106.2309692047433 120.05430185196036 l 2.1897081194333317 7.047550092427965 a28.379890510948904,28.379890510948904 0 0,0 -0.4677614442135816,0.1409326860359156 l -2.068071700779504 -7.084198147569606" fill="#ff4806" stroke="none" /><path d="M 105.88484417918355 120.15858648285463 l 2.0699179426015815 7.090522465479376 a28.386478804042675,28.386478804042675 0 0,0 -0.4702272011040806,0.13289090400457088 l -1.9475595733928952 -7.125102162822466" fill="#ff4806" stroke="none" /><path d="M 105.53697534728816 120.25689768951611 l 1.9444972933720757 7.113898881393956 a28.374864542391915,28.374864542391915 0 0,0 -0.47225173054738767,0.12472597426675124 l -1.8217551200131907 -7.146316204964291" fill="#ff4806" stroke="none" /><path d="M 105.18746579009965 120.34920634021253 l 2.1864760531429166 8.577030512327283 a29.85133492419989,29.85133492419989 0 0,0 -0.49901014624622075,0.12264455309078184 l -2.0385126221534846 -8.613396323732095" fill="#ff5d08" stroke="none" /><path d="M 104.48393922423573 120.51570834832081 l 1.5746909754017286 7.204803449489465 a28.37487928130264,28.37487928130264 0 0,0 -0.47806069383978606,0.10018226649118905 l -1.4504388201325646 -7.230841696707196" fill="#ff4806" stroke="none" /><path d="M 104.13013068566511 120.58985236759428 l 2.3205722484735314 11.568699307806986 a32.799146546883776,32.799146546883776 0 0,0 -0.5545123446929711,0.1062736106109114 l -2.121092289208856 -11.606930116766366" fill="#ff860c" stroke="none" /><path d="M 103.7750983002368 120.6578951692458 l 0.4409536318198422 2.412963365764832 a23.452923217293655,23.452923217293655 0 0,0 -0.397751558372675,0.06915420683107239 l -0.39935310197511725 -2.4201961511169108" fill="#ff0000" stroke="none" /><path d="M 103.41894727170886 120.7198165907248 l 1.326562579573971 8.039355731611886 a29.14806779898933,29.14806779898933 0 0,0 -0.495744974424115,0.07742516949471172 l -1.1879817415413387 -8.060999208453705" fill="#ff5307" stroke="none" /><path d="M 101.62511606390274 120.93702456842531 l 1.1455745163320183 14.758897734236525 a35.80329028635598,35.80329028635598 0 0,0 -0.6148571316143792,0.04240414767550857 l -0.8913546239387089 -14.77643022642832" fill="#ffae10" stroke="none" /><path d="M 101.26447882468166 120.96189622390904 l 0.14859223650624656 2.46328762532393 a23.467765300393037,23.467765300393037 0 0,0 -0.4034353943387623,0.020853001684029867 l -0.10616877375400464 -2.465480433770162" fill="#ff0000" stroke="none" /><path d="M 100.90346689309514 120.98055641714683 l 0.12709980875834043 2.951546679400146 a23.95428200449186,23.95428200449186 0 0,0 -0.41210450373662016,0.014193712359051733 l -0.07627495334706795 -2.953297190185291" fill="#ff0701" stroke="none" /><line stroke="#e1ed5e" stroke-width="0.3" x1="102.19456741930631" x2="102.32365962044197" y1="184.97166512339345" y2="189.96999836594603" /><path d="M 102.22038585953345 185.97133177190398 a86.0,86.0 0 0,1 -42.740103519485714,-10.115201625700543" fill="none" id="id31" stroke="none" /><text fill="#e1ed5e" style="font-size:6.75px; font-family:Arial;" text-anchor="middle"><textPath startOffset="22.20632615414155" xlink:href="#id31">July</textPath></text><path d="M 98.01472825383883 120.90594882070398 l -0.6991812745997399 7.362744154013683 a28.395867490174062,28.395867490174062 0 0,0 -0.4862013495511207,-0.05039675783834855 l 0.825815220756454 -7.349618027719574" fill="#ff4806" stroke="none" /><path d="M 96.58105272829116 120.7198165907248 l -2.400169133323633 14.545724246963358 a35.74241858506457,35.74241858506457 0 0,0 -0.6061761495784411,-0.10539149361354311 l 2.650194254374124 -14.502254174828808" fill="#ffae10" stroke="none" /><path d="M 96.22490169976321 120.6578951692458 l -2.651068610381338 14.507038779970479 a35.74728242560359,35.74728242560359 0 0,0 -0.6043544262924461,-0.11582596417460174 l 2.900390651245479 -14.45925561744741" fill="#ffae10" stroke="none" /><path d="M 95.51606077576429 120.51570834832081 l -1.975756176605979 9.039827584538841 a30.253220802919707,30.253220802919707 0 0,0 -0.5077928928094227,-0.11557200917169988 l 2.1310692188082645 -9.004478841789455" fill="#ff6309" stroke="none" /><path d="M 95.16358092515715 120.4354850818985 l -2.716330917030598 11.477404888508781 a32.79445957327344,32.79445957327344 0 0,0 -0.5482089196104388,-0.13473641458349747 l 2.913493121384247 -11.428947215611254" fill="#ff860c" stroke="none" /><path d="M 94.81253420990036 120.34920634021253 l -2.5507163956744505 10.005859575981049 a31.325859769792253,31.325859769792253 0 0,0 -0.5213660655566416,-0.13769751653593987 l 2.7225729040425812 -9.960470710141527" fill="#ff720a" stroke="none" /><path d="M 94.11515582081647 120.15858648285463 l -4.363949816987738 14.948749213065836 a36.57270564289725,36.57270564289725 0 0,0 -0.6027966035922464,-0.18161767184640412 l 4.62062139502023 -14.871416172113706" fill="#ffb911" stroke="none" /><path d="M 93.76903079525671 120.05430185196036 l -4.809518421851844 15.479379054057544 a37.20933815272319,37.20933815272319 0 0,0 -0.6100181375845664,-0.19530854391671665 l 5.0752579045273505 -15.39429766348112" fill="#ffc111" stroke="none" /><path d="M 92.06813273071674 119.44442032107085 l -3.4594420456279704 8.480581296672883 a30.159039163391352,30.159039163391352 0 0,0 -0.47899525310118063,-0.20022005464395948 l 3.604908758226613 -8.41977619900895" fill="#ff6109" stroke="none" /><path d="M 91.7346041902142 119.30500536409082 l -4.694005760843954 10.963516869316653 a32.926122262773724,32.926122262773724 0 0,0 -0.5191027783283706,-0.22755940299472124 l 4.882029213830068 -10.88109291302748" fill="#ff880c" stroke="none" /><path d="M 91.40352486487194 119.15986991738527 l -7.240907300354824 16.13857305207889 a38.68853523301516,38.68853523301516 0 0,0 -0.6052581914726323,-0.2778443496654477 l 7.517633487594876 -16.011541632079368" fill="#ffd413" stroke="none" /><path d="M 91.07499286063937 119.00905698771935 l -3.7600350999797825 8.008365749773617 a29.847134334643457,29.847134334643457 0 0,0 -0.4631810941026346,-0.2223550726380023 l 3.897328862082659 -7.942456400636052" fill="#ff5d08" stroke="none" /><path d="M 90.42595943632237 118.69057910512821 l -6.736763428888325 13.151606047907244 a35.776627596855704,35.776627596855704 0 0,0 -0.5456942521997391,-0.28548144164779005 l 6.962148583614559 -13.033695187314738" fill="#ffae10" stroke="none" /><path d="M 90.10565033884886 118.52300852407294 l -4.1655156518422904 7.798176188293026 a29.84098820887142,29.84098820887142 0 0,0 -0.450992806132984,-0.24591723667960955 l 4.299131269843915 -7.725318299853651" fill="#ff5d08" stroke="none" /><line stroke="#e1ed5e" stroke-width="0.3" x1="58.666819895761336" x2="56.23545636021788" y1="174.27360380694188" y2="178.64263932499728" /><path d="M 58.180547188652646 175.14741091055294 a86.0,86.0 0 0,1 -31.652253787137756,-30.449443065178592" fill="none" id="id32" stroke="none" /><text fill="#e1ed5e" style="font-size:6.75px; font-family:Arial;" text-anchor="middle"><textPath startOffset="22.20632615414155" xlink:href="#id32">August</textPath></text><path d="M 89.7882731507175 118.34994917583269 l -4.302643163552611 7.731628992649946 a29.848210275126334,29.848210275126334 0 0,0 -0.44680103358005024,-0.2537052876574359 l 4.435092964053869 -7.656420539197876" fill="#ff5d08" stroke="none" /><path d="M 89.4739219176387 118.17145234162733 l -3.6959551299282607 6.380426971449789 a28.373596996069622,28.373596996069622 0 0,0 -0.4205130952223548,-0.24844654879995534 l 3.8052360961789975 -6.315861850356084" fill="#ff4806" stroke="none" /><path d="M 89.1626897886671 117.98757091392108 l -12.424548688993148 20.622040548679855 a45.07567167321729,45.07567167321729 0 0,0 -0.6611544977320457,-0.40613509266809955 l 12.777682386657503 -20.40511698918338" fill="#daff1b" stroke="none" /><path d="M 88.54995079064634 117.60387380957326 l -4.824747609466095 7.417806380316484 a29.84884404828748,29.84884404828748 0 0,0 -0.42829580595781536,-0.2838511059323634 l 4.951718114163872 -7.333657253292802" fill="#ff5d08" stroke="none" /><path d="M 88.24862548938628 117.40417183066458 l -6.5994920870744265 9.77406465727183 a32.793457327344186,32.793457327344186 0 0,0 -0.46510978544583326,-0.3199067515270938 l 6.76675875714315 -9.659017116379635" fill="#ff860c" stroke="none" /><path d="M 87.95078237400918 117.19931262002967 l -8.459112303520207 12.074718999377318 a35.74297866367209,35.74297866367209 0 0,0 -0.5008658019999527,-0.3573544509151236 l 8.665705433369046 -11.927320286617975" fill="#ffae10" stroke="none" /><path d="M 87.36589467227662 116.77436683061367 l -18.752672720911445 24.898020327941516 a52.170084222347,52.170084222347 0 0,0 -0.7126713521650747,-0.5464460029747216 l 19.178472801570006 -24.57153498313943" fill="#88ff25" stroke="none" /><path d="M 86.79598089348748 116.32954008644616 l -3.384039596388344 4.185074998572908 a26.382060640089836,26.382060640089836 0 0,0 -0.35066767596164294,-0.2885756239825946 l 3.4555774008946756 -4.126204255733133" fill="#ff2b04" stroke="none" /><path d="M 86.51685102203217 116.09983520530335 l -6.817895092933462 8.141049811334133 a31.618869314991578,31.618869314991578 0 0,0 -0.41425916857869227,-0.35304065062349804 l 6.957019738089211 -8.022484770487685" fill="#ff760a" stroke="none" /><path d="M 86.24171649860922 115.8653595955263 l -10.63084257824617 12.25895223704744 a37.22642055025267,37.22642055025267 0 0,0 -0.4805002840029209,-0.4239856338225208 l 10.84028521515568 -12.07414346145263" fill="#ffc112" stroke="none" /><path d="M 85.97065885151581 115.62618273729859 l -5.113659401101337 5.695704125531792 a28.654446939921392,28.654446939921392 0 0,0 -0.3641849903830061,-0.3326743539720947 l 5.210943940951198 -5.606837004973121" fill="#ff4c07" stroke="none" /><path d="M 85.70375840098266 115.38237550388516 l -4.189778093102242 4.508089728315765 a27.154438517686692,27.154438517686692 0 0,0 -0.33964275884923983,-0.32115342792407353 l 4.266756686342299 -4.435301663645761" fill="#ff3605" stroke="none" /><path d="M 84.67929136418377 114.36230785411682 l -10.753561089598744 10.08086235226813 a35.739839275687814,35.739839275687814 0 0,0 -0.416885809915955,-0.4524472107163449 l 10.925493307510427 -9.894263886750442" fill="#ffae10" stroke="none" /><path d="M 84.43433777217949 114.09645910891817 l -10.929000169929811 9.897439745379 a35.744570466030325,35.744570466030325 0 0,0 -0.40909005641103624,-0.4596170151117155 l 11.097749075989185 -9.70784856052642" fill="#ffae10" stroke="none" /><path d="M 84.19399662182784 113.82643327865904 l -7.323843899667054 6.406593532803021 a30.730525687815835,30.730525687815835 0 0,0 -0.34485136015054274,-0.401140040277866 l 7.433037769388376 -6.279576393363625" fill="#ff6909" stroke="none" /><path d="M 83.95833913139862 113.55231037782056 l -9.19452427126604 7.767714809661466 a33.03647248736665,33.03647248736665 0 0,0 -0.3632501736542901,-0.4375582346205703 l 9.326870444813867 -7.6082953179271335" fill="#ff890c" stroke="none" /><path d="M 83.50135304334701 112.99209946851258 l -24.437810230927028 19.243909039753643 a52.1052182762493,52.1052182762493 0 0,0 -0.5488247176224216,-0.7094299298434289 l 24.765441765767516 -18.82040111579696" fill="#89ff24" stroke="none" /><path d="M 83.28015986056508 112.70617746262583 l -2.437660690963319 1.85249075797048 a24.06168444693992,24.06168444693992 0 0,0 -0.24776515076137434,-0.33192190864712834 l 2.4691871084197787 -1.8102559698140435" fill="#ff0901" stroke="none" /><path d="M 83.06392112726016 112.41649034213515 l -7.8541422371408895 5.758173539814126 a30.738794216732174,30.738794216732174 0 0,0 -0.30917402364674507,-0.4294156777210535 l 7.952096053163243 -5.622124256641934" fill="#ff6909" stroke="none" /><path d="M 82.6465618267979 111.8261652097733 l -12.18320245031996 8.30271001766635 a35.74331765861875,35.74331765861875 0 0,0 -0.34210932627143675,-0.5114070247728649 l 12.324314882002128 -8.091766078687664" fill="#ffae10" stroke="none" /><path d="M 82.44556493220864 111.52570212397912 l -10.829538965571999 7.110342188466219 a33.95514879281303,33.95514879281303 0 0,0 -0.31658347604483666,-0.4913445852185328 l 10.950327304993882 -6.9228760033262375" fill="#ff960d" stroke="none" /><path d="M 82.24976979558568 111.22182372390057 l -26.286473877796194 16.618498621284722 a52.09908688938799,52.09908688938799 0 0,0 -0.4727008711161912,-0.7621443154733265 l 26.568639388580344 -16.16355797444613" fill="#89ff24" stroke="none" /><line stroke="#e1ed5e" stroke-width="0.3" x1="26.63291911575756" x2="22.317208475507996" y1="142.92168965132927" y2="145.44649492493687" /><path d="M 25.769776987707644 143.4266507060508 a86.0,86.0 0 0,1 -11.730757126820373,-40.83630448921669" fill="none" id="id33" stroke="none" /><text fill="#e1ed5e" style="font-size:6.75px; font-family:Arial;" text-anchor="middle"><textPath startOffset="21.46611528233685" xlink:href="#id33">September</textPath></text><path d="M 81.87401531095188 110.60418214915194 l -12.721380392702677 7.44234518494197 a35.73845381807973,35.73845381807973 0 0,0 -0.30607093237057587,-0.5336604693837724 l 12.847603321225632 -7.222264869699891" fill="#ffae10" stroke="none" /><path d="M 81.69416730710424 110.29060199501025 l -11.643681330428464 6.545481559802052 a34.357344188658054,34.357344188658054 0 0,0 -0.28536815881408617,-0.5180260990324945 l 11.754625898694066 -6.344084942371736" fill="#ff9b0e" stroke="none" /><path d="M 81.51974371655577 109.97397251340807 l -8.247112686177134 4.45104624012169 a30.371588994946656,30.371588994946656 0 0,0 -0.24434303723432813,-0.46220494336954304 l 8.322508231636348 -4.308426281666022" fill="#ff6409" stroke="none" /><path d="M 81.35079622478065 109.6543875284942 l -10.56971896195365 5.471770492505849 a32.902068360471645,32.902068360471645 0 0,0 -0.256042846583403,-0.5051968271002107 l 10.662340478323319 -5.289019453702952" fill="#ff870c" stroke="none" /><path d="M 81.02952815118164 109.00673069616217 l -33.28311234740103 15.802033393377249 a57.84385738349242,57.84385738349242 0 0,0 -0.4193001596983121,-0.9031352412967911 l 33.550187123939175 -15.226778084801632" fill="#4cff2c" stroke="none" /><path d="M 80.73074385275274 108.34839909993369 l -13.716375313276103 5.942615243923952 a35.948365384615386,35.948365384615386 0 0,0 -0.24110914248397747,-0.5699107903428244 l 13.816635436952389 -5.705629927914969" fill="#ffb010" stroke="none" /><path d="M 80.58989483394504 108.01547362559985 l -6.820510424225909 2.8165546219769935 a28.37918304323414,28.37918304323414 0 0,0 -0.18256921136438103,-0.4531218102143403 l 6.867982249847677 -2.698733443919848" fill="#ff4806" stroke="none" /><path d="M 80.45479744820244 107.68017299344265 l -13.715319125017887 5.3893544086460325 a35.73618402582819,35.73618402582819 0 0,0 -0.22004252476374506,-0.5744615970682363 l 13.806055929375141 -5.152469244744638" fill="#ffae10" stroke="none" /><path d="M 80.20201598880116 107.00284435728193 l -13.903651175994936 4.917930286657334 a35.74779828747894,35.74779828747894 0 0,0 -0.2002032786761657,-0.5818844409103805 l 13.986245285614329 -4.677873142657656" fill="#ffae10" stroke="none" /><path d="M 80.0844068197444 106.66101706037122 l -27.95950517954951 9.351403160070307 a50.481904126895,50.481904126895 0 0,0 -0.26853427973471217,-0.8264635319067414 l 28.11633171030047 -8.868740728185761" fill="#9bff22" stroke="none" /><path d="M 79.86692584326677 105.97154293290107 l -14.131516098606811 4.191459010823305 a35.74001614261651,35.74001614261651 0 0,0 -0.1698627032782204,-0.5913143540046273 l 14.201571438771136 -3.947587181314082" fill="#ffae10" stroke="none" /><path d="M 79.67330655649465 105.27499134158121 l -14.26954423276017 3.7030972344481508 a35.74221224031443,35.74221224031443 0 0,0 -0.14941723032210835,-0.5968475614775262 l 14.331172777377338 -3.4569218335732326" fill="#ffae10" stroke="none" /><path d="M 79.58551787078972 104.9243191809786 l -14.32664514097024 3.455829690913779 a35.737554744525546,35.737554744525546 0 0,0 -0.1391032142782534,-0.5992530064413625 l 14.38400892117905 -3.2087080271238424" fill="#ffae10" stroke="none" /><path d="M 79.50377843672027 104.57218783832718 l -7.208173574175378 1.6079609332210165 a28.385343907916898,28.385343907916898 0 0,0 -0.10227639680618436,-0.4778012763127718 l 7.2347840097060025 -1.483645837492081" fill="#ff4806" stroke="none" /><path d="M 79.4281124754447 104.21870165774334 l -36.09108672544723 7.401242458508643 a57.84216240875912,57.84216240875912 0 0,0 -0.1916230055052266,-0.9770815767244408 l 36.21313966392812 -6.7788971547162475" fill="#4cff2c" stroke="none" /><path d="M 79.23777060512086 103.15116336523772 l -4.3710992001929565 0.6634185281116886 a25.421157355418305,25.421157355418305 0 0,0 -0.061937982873635326,-0.43319410795881835 l 4.3818712340831905 -0.5880789481724696" fill="#ff1d03" stroke="none" /><path d="M 79.1416061653843 102.43462659150553 l -14.639158039563329 1.708706994554144 a35.738542251544075,35.738542251544075 0 0,0 -0.06606133132915983,-0.6116458826514791 l 14.66640167239354 -1.4564647900178829" fill="#ffae10" stroke="none" /><path d="M 79.10278846688536 102.07522291339032 l -5.862673975346893 0.582199943188478 a26.89151108927569,26.89151108927569 0 0,0 -0.04177840028605356,-0.4610211658186604 l 5.871826971910022 -0.48119738882125146" fill="#ff3304" stroke="none" /><path d="M 79.04373962182676 101.35467743843564 l -14.719066604668951 0.9514859561939966 a35.74978804042672,35.74978804042672 0 0,0 -0.03441112720449066,-0.6144337923239579 l 14.733264082760973 -0.697980447534601" fill="#ffae10" stroke="none" /><path d="M 79.0095281055655 100.63252640178507 l -14.72974838233874 0.4438659021263164 a35.7364345873105,35.7364345873105 0 0,0 -0.013235988003877739,-0.6150243527239951 l 14.735206433027624 -0.19025173361219236" fill="#ffae10" stroke="none" /><line stroke="#e1ed5e" stroke-width="0.3" x1="15.007084014347285" x2="10.007500721073583" y1="101.09737516637583" y2="101.16192664675087" /><path d="M 14.007167355692545 101.11028546245083 a86.0,86.0 0 0,1 10.666146001902534,-42.60595125391555" fill="none" id="id34" stroke="none" /><text fill="#e1ed5e" style="font-size:6.75px; font-family:Arial;" text-anchor="middle"><textPath startOffset="22.20632615414155" xlink:href="#id34">October</textPath></text><path d="M 79.00175016825051 100.2711162175752 l -14.883143288594095 0.1921618014055809 a35.88438377316115,35.88438377316115 0 0,0 -0.0026583539571628993,-0.6177078387856946 l 14.88424593984076 0.06405551558378911" fill="#ffb010" stroke="none" /><path d="M 79.00019446554 99.90962569577889 l -11.80363578123631 -0.05079786902113243 a32.80374508702976,32.80374508702976 0 0,0 0.00729023070635435,-0.564636402323247 l 11.80101254341224 0.2539705294048513" fill="#ff860c" stroke="none" /><path d="M 79.03285615573316 98.82574320788736 l -11.77694802577788 -0.6595634251542875 a32.7954028635598,32.7954028635598 0 0,0 0.0364175910738281,-0.5633640151047629 l 11.763849843699639 0.862186504512062" fill="#ff860c" stroke="none" /><path d="M 79.05617556472873 98.46500227214037 l -3.356009734115605 -0.24596593293948427 a24.365011229646267,24.365011229646267 0 0,0 0.0342566444428122,-0.41801783110084495 l 3.3512786058532953 0.30369768124810764" fill="#ff0e01" stroke="none" /><path d="M 79.32604984820605 96.31383870115002 l -7.690613689994156 -1.371234928028614 a28.81190272318922,28.81190272318922 0 0,0 0.0912572786863056,-0.48750003178880624 l 7.665870687397988 1.503413037279993" fill="#ff4e07" stroke="none" /><path d="M 79.62865764111835 94.90015583598534 l -14.294754515509597 -3.5786066086194754 a35.7358892476137,35.7358892476137 0 0,0 0.15452142035998886,-0.5954340659014266 l 14.2310367632793 3.8241371000697657" fill="#ffae10" stroke="none" /><path d="M 79.91906864156998 93.8553929516997 l -14.099863724865749 -4.314447396759464 a35.745189500280745,35.745189500280745 0 0,0 0.18509968284866232,-0.5868165776799078 l 14.023508558248883 4.556514140865786" fill="#ffae10" stroke="none" /><path d="M 80.52162464483688 92.15188598940014 l -8.308207902489631 -3.347494934952147 a29.957233997754074,29.957233997754074 0 0,0 0.19683088631264256,-0.4766416036919165 l 8.249355329290788 3.4900111090973747" fill="#ff5e08" stroke="none" /><path d="M 80.803312248108 91.48605970444005 l -57.59006325567602 -25.54182088667983 a84.0,84.0 0 0,0 0.5975907321465934,-1.3167119646317162 l 57.141870206566075 26.529354860153617" fill="#4dd2ff" stroke="none" /><line stroke="#e1ed5e" stroke-width="0.3" x1="26.266209847984243" x2="21.928928074336255" y1="57.711370442889674" y2="55.22380399835377" /><path d="M 25.398753493254645 57.213857153982495 a86.0,86.0 0 0,1 29.58750427330803,-30.492523968695096" fill="none" id="id35" stroke="none" /><text fill="#e1ed5e" style="font-size:6.75px; font-family:Arial;" text-anchor="middle"><textPath startOffset="21.46611528233685" xlink:href="#id35">November</textPath></text><path d="M 82.34701348167596 88.62581576622439 l -8.098592530672734 -5.21809062633873 a30.63408899494666,30.63408899494666 0 0,0 0.28942411092106307,-0.440812777179687 l 8.00757178439375 5.356721467496085" fill="#ff6809" stroke="none" /><line stroke="#e1ed5e" stroke-width="0.3" x1="56.762969772571076" x2="54.21961505331055" y1="26.818313649435495" y2="22.513508569990535" /><path d="M 56.25429882871897 25.957352633546506 a86.0,86.0 0 0,1 42.265352541879196,-11.944610805530505" fill="none" id="id36" stroke="none" /><text fill="#e1ed5e" style="font-size:6.75px; font-family:Arial;" text-anchor="middle"><textPath startOffset="22.20632615414155" xlink:href="#id36">December</textPath></text></svg>